<svg xmlns="http://www.w3.org/2000/svg" viewBox="0 0 512 512" role="img" aria-label="Album artwork placeholder">
  <defs>
    <linearGradient id="bg" x1="0" y1="0" x2="1" y2="1">
      <stop offset="0" stop-color="#111827"/>
      <stop offset="0.5" stop-color="#4338ca"/>
      <stop offset="1" stop-color="#ec4899"/>
    </linearGradient>
    <radialGradient id="glow" cx="32%" cy="24%" r="70%">
      <stop offset="0" stop-color="#fef3c7" stop-opacity="0.55"/>
      <stop offset="0.45" stop-color="#a78bfa" stop-opacity="0.28"/>
      <stop offset="1" stop-color="#111827" stop-opacity="0"/>
    </radialGradient>
    <filter id="shadow" x="-20%" y="-20%" width="140%" height="140%">
      <feDropShadow dx="0" dy="18" stdDeviation="18" flood-color="#020617" flood-opacity="0.35"/>
    </filter>
  </defs>
  <rect width="512" height="512" rx="72" fill="url(#bg)"/>
  <rect width="512" height="512" rx="72" fill="url(#glow)"/>
  <g opacity="0.2" fill="none" stroke="#fff" stroke-width="2">
    <path d="M56 118c92-54 196-52 308 6 36 19 66 24 92 16"/>
    <path d="M54 372c102-48 202-42 300 18 38 23 72 29 102 18"/>
  </g>
  <g filter="url(#shadow)">
    <circle cx="256" cy="256" r="134" fill="#0f172a" opacity="0.92"/>
    <circle cx="256" cy="256" r="104" fill="none" stroke="#c4b5fd" stroke-width="18" opacity="0.95"/>
    <circle cx="256" cy="256" r="52" fill="#f8fafc" opacity="0.95"/>
    <circle cx="256" cy="256" r="17" fill="#4338ca"/>
  </g>
  <path d="M314 139v126c0 31-26 56-58 56s-58-25-58-56 26-56 58-56c11 0 21 3 30 8v-62l103-22v42z" fill="#ffffff" opacity="0.9"/>
  <path d="M96 428h320" stroke="#fff" stroke-width="18" stroke-linecap="round" opacity="0.28"/>
  <path d="M146 456h220" stroke="#fff" stroke-width="10" stroke-linecap="round" opacity="0.22"/>
</svg>
